<?xml version="1.0" ?><!DOCTYPE svg  PUBLIC '-//W3C//DTD SVG 1.1//EN'  'http://www.w3.org/Graphics/SVG/1.1/DTD/svg11.dtd'><svg enable-background="new 0 0 48 48" height="48px" id="Layer_3" version="1.1" viewBox="0 0 48 48" width="48px" xml:space="preserve" xmlns="http://www.w3.org/2000/svg" xmlns:xlink="http://www.w3.org/1999/xlink"><g><rect fill="#241F20" height="4" width="35" x="13" y="12.448"/><polygon fill="#241F20" points="3.961,13.321 2.121,11.481 0,13.603 1.84,15.443 1.836,15.447 3.958,17.568 11.097,10.429    8.976,8.307  "/><rect fill="#241F20" height="4" width="35" x="13" y="23.511"/><polygon fill="#241F20" points="3.962,24.384 2.121,22.544 0,24.666 1.84,26.506 1.836,26.51 3.958,28.631 11.097,21.491    8.976,19.37  "/><rect fill="#241F20" height="4" width="35" x="13" y="34.574"/><polygon fill="#241F20" points="3.961,35.445 2.121,33.607 0,35.729 1.84,37.568 1.836,37.572 3.958,39.693 11.097,32.555    8.976,30.432  "/></g></svg>